<?xml version="1.0" encoding="utf-8"?>
<!-- Generator: Adobe Illustrator 23.0.1, SVG Export Plug-In . SVG Version: 6.00 Build 0)  -->
<svg version="1.1" id="Lager_1" xmlns="http://www.w3.org/2000/svg" xmlns:xlink="http://www.w3.org/1999/xlink" x="0px" y="0px"
	 viewBox="0 0 408 259" style="enable-background:new 0 0 408 259;" xml:space="preserve">
<style type="text/css">
	.st0{fill:#871C1C;}
	.st1{fill:#25690F;}
	.st2{fill:#194D31;}
	.st3{fill:#255941;}
	.st4{fill:#667A49;}
	.st5{fill:#A62D2D;}
	.st6{fill:#C44141;}
</style>
<polygon class="st0" points="16.5,161.2 140.8,209.5 166.9,188.9 74,152.6 230.7,28 200.3,14.8 "/>
<polygon class="st1" points="287.6,56.3 291.4,84.5 344,106.4 352.7,98.6 366.6,89 "/>
<polygon class="st2" points="160,128.5 285.4,31.4 383.5,71.9 362.4,87.8 289.2,60.1 185.5,138.3 "/>
<polygon class="st2" points="258,168.1 282.3,177 386.8,96.7 362.4,87.8 "/>
<polygon class="st2" points="139.8,143.9 239.7,185.6 260.1,169.2 160.2,127.5 "/>
<polygon class="st1" points="139.9,144.3 237.8,183.9 241.2,209.6 143.4,171.1 "/>
<polygon class="st3" points="237.8,183.9 258,168.1 261.4,193.9 241.2,209.6 "/>
<polygon class="st1" points="258,168.1 282.3,177 285.9,203.8 261.4,193.9 "/>
<polygon class="st3" points="282.3,177 386.8,96.7 390.1,122.5 285.9,203.8 "/>
<polygon class="st3" points="207.7,147.5 291.4,84.7 288,59.3 185.5,138.4 "/>
<polygon class="st3" points="362.4,87.8 383.5,71.9 386.8,96.7 "/>
<path class="st4" d="M220.9,169.9"/>
<ellipse transform="matrix(0.9915 -0.1303 0.1303 0.9915 -17.8469 25.6241)" class="st3" cx="186.9" cy="149.2" rx="14" ry="7"/>
<ellipse transform="matrix(0.9915 -0.1303 0.1303 0.9915 -17.4619 25.5478)" class="st4" cx="186.5" cy="146.2" rx="14" ry="7"/>
<ellipse transform="matrix(0.9915 -0.1303 0.1303 0.9915 -18.9519 28.7729)" class="st3" cx="210.4" cy="159.2" rx="14" ry="7"/>
<ellipse transform="matrix(0.9915 -0.1303 0.1303 0.9915 -18.5682 28.6968)" class="st4" cx="210" cy="156.2" rx="14" ry="7"/>
<ellipse transform="matrix(0.9915 -0.1303 0.1303 0.9915 -20.0062 32.1774)" class="st3" cx="235.9" cy="169" rx="14" ry="7"/>
<ellipse transform="matrix(0.9915 -0.1303 0.1303 0.9915 -19.6225 32.1013)" class="st4" cx="235.5" cy="166" rx="14" ry="7"/>
<ellipse transform="matrix(0.9915 -0.1303 0.1303 0.9915 -18.7344 37.9148)" class="st3" cx="280.4" cy="162.1" rx="14" ry="7"/>
<ellipse transform="matrix(0.9915 -0.1303 0.1303 0.9915 -18.4786 37.8641)" class="st4" cx="280.1" cy="160.1" rx="14" ry="7"/>
<ellipse transform="matrix(0.9915 -0.1303 0.1303 0.9915 -16.4583 40.659)" class="st3" cx="302.5" cy="146.1" rx="14" ry="7"/>
<ellipse transform="matrix(0.9915 -0.1303 0.1303 0.9915 -16.1381 40.5948)" class="st4" cx="302.2" cy="143.6" rx="14" ry="6.5"/>
<ellipse transform="matrix(0.9915 -0.1303 0.1303 0.9915 -14.2345 43.1464)" class="st3" cx="322.6" cy="130.4" rx="14" ry="7"/>
<ellipse transform="matrix(0.9915 -0.1303 0.1303 0.9915 -13.8498 43.0688)" class="st4" cx="322.2" cy="127.4" rx="14" ry="7"/>
<ellipse transform="matrix(0.9915 -0.1303 0.1303 0.9915 -11.984 45.7614)" class="st3" cx="343.7" cy="114.5" rx="14" ry="7"/>
<ellipse transform="matrix(0.9915 -0.1303 0.1303 0.9915 -11.7282 45.7107)" class="st4" cx="343.5" cy="112.5" rx="14" ry="6"/>
<ellipse transform="matrix(0.9915 -0.1303 0.1303 0.9915 -9.6326 48.2222)" class="st3" cx="363.7" cy="97.7" rx="14" ry="7"/>
<ellipse transform="matrix(0.9915 -0.1303 0.1303 0.9915 -9.2608 48.0826)" class="st4" cx="362.8" cy="94.8" rx="13.5" ry="6"/>
<ellipse transform="matrix(0.9915 -0.1303 0.1303 0.9915 -6.43 47.5872)" class="st3" cx="360.4" cy="72.9" rx="14" ry="7"/>
<ellipse transform="matrix(0.9915 -0.1303 0.1303 0.9915 -6.0451 47.5109)" class="st4" cx="360.1" cy="70" rx="14" ry="7"/>
<ellipse transform="matrix(0.9915 -0.1303 0.1303 0.9915 -5.2212 44.285)" class="st3" cx="335.8" cy="62" rx="14" ry="7"/>
<ellipse transform="matrix(0.9915 -0.1303 0.1303 0.9915 -4.8375 44.2089)" class="st4" cx="335.4" cy="59.1" rx="14" ry="7"/>
<ellipse transform="matrix(0.9915 -0.1303 0.1303 0.9915 -4.2694 41.0337)" class="st3" cx="311.4" cy="53.1" rx="14" ry="7"/>
<ellipse transform="matrix(0.9915 -0.1303 0.1303 0.9915 -3.8857 40.9576)" class="st4" cx="311.1" cy="50.2" rx="14" ry="7"/>
<ellipse transform="matrix(0.9915 -0.1303 0.1303 0.9915 -3.1897 37.7571)" class="st3" cx="286.9" cy="43.3" rx="14" ry="7"/>
<ellipse transform="matrix(0.9915 -0.1303 0.1303 0.9915 -2.806 37.681)" class="st4" cx="286.6" cy="40.3" rx="14" ry="7"/>
<ellipse transform="matrix(0.9915 -0.1303 0.1303 0.9915 -5.4402 35.142)" class="st3" cx="265.8" cy="59.1" rx="14" ry="7"/>
<ellipse transform="matrix(0.9915 -0.1303 0.1303 0.9915 -5.0552 35.0657)" class="st4" cx="265.4" cy="56.2" rx="14" ry="7"/>
<ellipse transform="matrix(0.9915 -0.1303 0.1303 0.9915 -7.7917 32.6813)" class="st3" cx="245.9" cy="75.9" rx="14" ry="7"/>
<ellipse transform="matrix(0.9915 -0.1303 0.1303 0.9915 -7.4082 32.6039)" class="st4" cx="245.5" cy="72.9" rx="14" ry="7"/>
<ellipse transform="matrix(0.9915 -0.1303 0.1303 0.9915 -10.0421 30.0663)" class="st3" cx="224.7" cy="91.8" rx="14" ry="7"/>
<ellipse transform="matrix(0.9915 -0.1303 0.1303 0.9915 -9.6574 29.9886)" class="st4" cx="224.3" cy="88.8" rx="14" ry="7"/>
<ellipse transform="matrix(0.9915 -0.1303 0.1303 0.9915 -12.2916 27.4497)" class="st3" cx="203.6" cy="107.7" rx="14" ry="7"/>
<ellipse transform="matrix(0.9915 -0.1303 0.1303 0.9915 -11.9079 27.3736)" class="st4" cx="203.2" cy="104.7" rx="14" ry="7"/>
<ellipse transform="matrix(0.9915 -0.1303 0.1303 0.9915 -14.5164 24.9638)" class="st3" cx="183.5" cy="123.4" rx="14" ry="7"/>
<ellipse transform="matrix(0.9915 -0.1303 0.1303 0.9915 -14.1315 24.8875)" class="st4" cx="183.1" cy="120.4" rx="14" ry="7"/>
<ellipse transform="matrix(0.9915 -0.1303 0.1303 0.9915 -16.6634 22.194)" class="st3" cx="161.3" cy="138.4" rx="14" ry="7"/>
<ellipse transform="matrix(0.9915 -0.1303 0.1303 0.9915 -16.4076 22.1433)" class="st4" cx="161" cy="136.5" rx="14" ry="6"/>
<polygon class="st5" points="74,152.6 230.7,28 235.8,59.6 105.3,164.7 "/>
<polygon class="st0" points="16.5,161.2 140.8,209.5 145.9,242.1 21.8,194.9 "/>
<polygon class="st5" points="140.8,209.5 166.9,188.9 172.1,221.5 145.9,242.1 "/>
<ellipse transform="matrix(0.9953 -9.640410e-02 9.640410e-02 0.9953 -2.0657 19.6519)" class="st5" cx="202.3" cy="31.2" rx="17.5" ry="7.5"/>
<ellipse transform="matrix(0.9953 -9.640410e-02 9.640410e-02 0.9953 -1.5878 19.5824)" class="st6" cx="201.9" cy="26.2" rx="17.5" ry="7.5"/>
<ellipse transform="matrix(0.9953 -9.640410e-02 9.640410e-02 0.9953 -4.1741 17.2288)" class="st5" cx="176.2" cy="51.8" rx="17.5" ry="7.5"/>
<ellipse transform="matrix(0.9953 -9.640410e-02 9.640410e-02 0.9953 -3.7106 17.0634)" class="st6" cx="174.7" cy="46.9" rx="17.5" ry="7.5"/>
<ellipse transform="matrix(0.9953 -9.640410e-02 9.640410e-02 0.9953 -6.2835 14.8059)" class="st5" cx="150.1" cy="72.4" rx="17.5" ry="7.5"/>
<ellipse transform="matrix(0.9953 -9.640410e-02 9.640410e-02 0.9953 -5.9017 14.7498)" class="st6" cx="149.7" cy="68.5" rx="17.5" ry="7.5"/>
<ellipse transform="matrix(0.9953 -9.640410e-02 9.640410e-02 0.9953 -8.488 12.3963)" class="st5" cx="124" cy="94" rx="17.5" ry="7.5"/>
<ellipse transform="matrix(0.9953 -9.640410e-02 9.640410e-02 0.9953 -7.9152 12.3126)" class="st6" cx="123.5" cy="88.1" rx="17.5" ry="7.5"/>
<ellipse transform="matrix(0.9953 -9.640410e-02 9.640410e-02 0.9953 -10.7066 9.8916)" class="st5" cx="97" cy="115.7" rx="17.5" ry="7.5"/>
<ellipse transform="matrix(0.9953 -9.640410e-02 9.640410e-02 0.9953 -10.1338 9.808)" class="st6" cx="96.4" cy="109.8" rx="17.5" ry="7.5"/>
<ellipse transform="matrix(0.9953 -9.640410e-02 9.640410e-02 0.9953 -12.7201 7.4544)" class="st5" cx="70.8" cy="135.4" rx="17.5" ry="7.5"/>
<ellipse transform="matrix(0.9953 -9.640410e-02 9.640410e-02 0.9953 -12.2424 7.384)" class="st6" cx="70.3" cy="130.4" rx="17.5" ry="7.5"/>
<ellipse transform="matrix(0.9953 -9.640410e-02 9.640410e-02 0.9953 -14.9246 5.0447)" class="st5" cx="44.7" cy="157" rx="17.5" ry="7.5"/>
<ellipse transform="matrix(0.9953 -9.640410e-02 9.640410e-02 0.9953 -14.3518 4.961)" class="st6" cx="44.2" cy="151" rx="17.5" ry="7.5"/>
<ellipse transform="matrix(0.9953 -9.640410e-02 9.640410e-02 0.9953 -15.9528 8.0231)" class="st5" cx="75.1" cy="169.1" rx="17.5" ry="7.5"/>
<ellipse transform="matrix(0.9953 -9.640410e-02 9.640410e-02 0.9953 -15.38 7.9394)" class="st6" cx="74.5" cy="163.1" rx="17.5" ry="7.5"/>
<ellipse transform="matrix(0.9953 -9.640410e-02 9.640410e-02 0.9953 -16.9535 11.1924)" class="st5" cx="107.4" cy="181" rx="17.5" ry="7.5"/>
<ellipse transform="matrix(0.9953 -9.640410e-02 9.640410e-02 0.9953 -16.3807 11.1087)" class="st6" cx="106.8" cy="175.1" rx="17.5" ry="7.5"/>
<ellipse transform="matrix(0.9953 -9.640410e-02 9.640410e-02 0.9953 -17.9683 14.2667)" class="st5" cx="138.7" cy="193.1" rx="17.5" ry="7.5"/>
<ellipse transform="matrix(0.9953 -9.640410e-02 9.640410e-02 0.9953 -17.5048 14.1013)" class="st6" cx="137.2" cy="188.2" rx="17.5" ry="7.5"/>
</svg>
